<?xml version="1.0" encoding="UTF-8"?>
<!DOCTYPE svg PUBLIC "-//W3C//DTD SVG 1.1//EN" "http://www.w3.org/Graphics/SVG/1.1/DTD/svg11.dtd">
<svg xmlns="http://www.w3.org/2000/svg" version="1.1" width="534px" height="544px" style="shape-rendering:geometricPrecision; text-rendering:geometricPrecision; image-rendering:optimizeQuality; fill-rule:evenodd; clip-rule:evenodd" xmlns:xlink="http://www.w3.org/1999/xlink">
<g><path style="opacity:0.993" fill="#ea4334" d="M 248.5,-0.5 C 265.167,-0.5 281.833,-0.5 298.5,-0.5C 358.097,5.88715 409.93,29.2205 454,69.5C 454.667,70.1667 454.667,70.8333 454,71.5C 428.32,97.3472 402.486,123.014 376.5,148.5C 332.137,109.591 281.47,98.4241 224.5,115C 173.037,133.297 138.037,168.13 119.5,219.5C 89.1667,196.167 58.8333,172.833 28.5,149.5C 68.0415,72.8449 130.042,24.6782 214.5,5C 225.925,2.82293 237.258,0.989599 248.5,-0.5 Z"/></g>
<g><path style="opacity:0.995" fill="#fabb04" d="M 28.5,149.5 C 58.8333,172.833 89.1667,196.167 119.5,219.5C 108.833,254.167 108.833,288.833 119.5,323.5C 89.1667,346.833 58.8333,370.167 28.5,393.5C 12.1375,361.05 2.47083,326.716 -0.5,290.5C -0.5,277.833 -0.5,265.167 -0.5,252.5C 2.46833,216.295 12.135,181.962 28.5,149.5 Z"/></g>
<g><path style="opacity:0.996" fill="#4285f3" d="M 533.5,258.5 C 533.5,271.5 533.5,284.5 533.5,297.5C 530.52,351.273 513.687,400.273 483,444.5C 474.014,456.65 463.847,467.65 452.5,477.5C 422.857,455.185 393.524,432.518 364.5,409.5C 392.845,389.342 410.845,362.175 418.5,328C 369.501,327.5 320.501,327.333 271.5,327.5C 271.5,292.5 271.5,257.5 271.5,222.5C 357.5,222.5 443.5,222.5 529.5,222.5C 530.853,234.643 532.186,246.643 533.5,258.5 Z"/></g>
<g><path style="opacity:0.995" fill="#34a853" d="M 119.5,323.5 C 139.725,379.132 178.392,414.965 235.5,431C 281.448,440.891 324.448,433.724 364.5,409.5C 393.524,432.518 422.857,455.185 452.5,477.5C 421.262,506.627 384.595,526.127 342.5,536C 327.165,539.402 311.832,541.902 296.5,543.5C 280.5,543.5 264.5,543.5 248.5,543.5C 160.3,533.338 91.4671,491.671 42,418.5C 36.9665,410.432 32.4665,402.098 28.5,393.5C 58.8333,370.167 89.1667,346.833 119.5,323.5 Z"/></g>
</svg>
